<?xml version="1.0" encoding="UTF-8"?>
<svg width="384px" height="48px" viewBox="0 0 384 48" version="1.1" xmlns="http://www.w3.org/2000/svg" xmlns:xlink="http://www.w3.org/1999/xlink">
    <title>logo</title>
    <g id="Welcome" stroke="none" stroke-width="1" fill="none" fill-rule="evenodd">
        <g id="Artboard" transform="translate(-102.000000, -185.000000)" fill="#FFFFFF">
            <g id="logo" transform="translate(102.000000, 185.000000)">
                <g id="ClinicalInvestigator" transform="translate(58.000000, 9.650000)" fill-rule="nonzero">
                    <path d="M12.425,26.39 C14.0816667,26.39 15.6625,26.1391667 17.1675,25.6375 C18.6725,25.1358333 19.9033333,24.43 20.86,23.52 L20.86,23.52 L19.145,19.6 C18.025,20.44 16.9341667,21.0525 15.8725,21.4375 C14.8108333,21.8225 13.6966667,22.015 12.53,22.015 C10.29,22.015 8.575,21.2975 7.385,19.8625 C6.195,18.4275 5.6,16.3333333 5.6,13.58 C5.6,10.85 6.195,8.77333333 7.385,7.35 C8.575,5.92666667 10.29,5.215 12.53,5.215 C13.6966667,5.215 14.8108333,5.4075 15.8725,5.7925 C16.9341667,6.1775 18.025,6.79 19.145,7.63 L19.145,7.63 L20.86,3.71 C19.9033333,2.8 18.6725,2.09416667 17.1675,1.5925 C15.6625,1.09083333 14.0816667,0.84 12.425,0.84 C9.905,0.84 7.70583333,1.365 5.8275,2.415 C3.94916667,3.465 2.50833333,4.9525 1.505,6.8775 C0.501666667,8.8025 0,11.0366667 0,13.58 C0,16.1466667 0.501666667,18.3925 1.505,20.3175 C2.50833333,22.2425 3.94916667,23.7358333 5.8275,24.7975 C7.70583333,25.8591667 9.905,26.39 12.425,26.39 Z M29.645,26.075 L29.645,0.315 L24.36,0.315 L24.36,26.075 L29.645,26.075 Z M39.41,4.97 L39.41,0 L33.775,0 L33.775,4.97 L39.41,4.97 Z M39.235,26.075 L39.235,8.33 L33.95,8.33 L33.95,26.075 L39.235,26.075 Z M48.825,26.075 L48.825,16.135 C48.825,14.875 49.175,13.8716667 49.875,13.125 C50.575,12.3783333 51.5083333,12.005 52.675,12.005 C53.655,12.005 54.3725,12.2908333 54.8275,12.8625 C55.2825,13.4341667 55.51,14.3383333 55.51,15.575 L55.51,15.575 L55.51,26.075 L60.795,26.075 L60.795,15.33 C60.795,10.36 58.695,7.875 54.495,7.875 C53.2116667,7.875 52.0625,8.155 51.0475,8.715 C50.0325,9.275 49.21,10.08 48.58,11.13 L48.58,11.13 L48.23,8.33 L43.26,8.33 C43.4466667,9.82333333 43.54,11.515 43.54,13.405 L43.54,13.405 L43.54,26.075 L48.825,26.075 Z M70.455,4.97 L70.455,0 L64.82,0 L64.82,4.97 L70.455,4.97 Z M70.28,26.075 L70.28,8.33 L64.995,8.33 L64.995,26.075 L70.28,26.075 Z M82.985,26.355 C84.3383333,26.355 85.6333333,26.1625 86.87,25.7775 C88.1066667,25.3925 89.11,24.8616667 89.88,24.185 L89.88,24.185 L88.48,20.51 C87.78,21.07 87.01,21.5075 86.17,21.8225 C85.33,22.1375 84.5133333,22.295 83.72,22.295 C82.25,22.295 81.1183333,21.8575 80.325,20.9825 C79.5316667,20.1075 79.135,18.8183333 79.135,17.115 C79.135,15.435 79.5375,14.1575 80.3425,13.2825 C81.1475,12.4075 82.2733333,11.97 83.72,11.97 C84.5133333,11.97 85.33,12.1275 86.17,12.4425 C87.01,12.7575 87.78,13.195 88.48,13.755 L88.48,13.755 L89.88,10.08 C89.1566667,9.40333333 88.1883333,8.86666667 86.975,8.47 C85.7616667,8.07333333 84.5133333,7.875 83.23,7.875 C81.34,7.875 79.6775,8.26583333 78.2425,9.0475 C76.8075,9.82916667 75.6933333,10.9258333 74.9,12.3375 C74.1066667,13.7491667 73.71,15.3766667 73.71,17.22 C73.71,20.0433333 74.5325,22.2716667 76.1775,23.905 C77.8225,25.5383333 80.0916667,26.355 82.985,26.355 Z M99.365,26.355 C100.601667,26.355 101.71,26.0983333 102.69,25.585 C103.67,25.0716667 104.428333,24.36 104.965,23.45 L104.965,23.45 L104.965,26.075 L110.18,26.075 L110.18,8.33 L104.965,8.33 L104.965,10.85 C104.428333,9.94 103.67,9.21666667 102.69,8.68 C101.71,8.14333333 100.601667,7.875 99.365,7.875 C97.8483333,7.875 96.495,8.26583333 95.305,9.0475 C94.115,9.82916667 93.1875,10.9316667 92.5225,12.355 C91.8575,13.7783333 91.525,15.4 91.525,17.22 C91.525,19.04 91.8575,20.6441667 92.5225,22.0325 C93.1875,23.4208333 94.1091667,24.4883333 95.2875,25.235 C96.4658333,25.9816667 97.825,26.355 99.365,26.355 Z M100.905,22.33 C99.575,22.33 98.5541667,21.8925 97.8425,21.0175 C97.1308333,20.1425 96.775,18.8766667 96.775,17.22 C96.775,15.5633333 97.1366667,14.2683333 97.86,13.335 C98.5833333,12.4016667 99.5983333,11.935 100.905,11.935 C102.211667,11.935 103.215,12.3841667 103.915,13.2825 C104.615,14.1808333 104.965,15.47 104.965,17.15 C104.965,18.83 104.615,20.1133333 103.915,21 C103.215,21.8866667 102.211667,22.33 100.905,22.33 Z M119.735,26.075 L119.735,0.315 L114.45,0.315 L114.45,26.075 L119.735,26.075 Z" id="Clinical"></path>
                    <path d="M127.295,26.075 L127.295,1.155 L125.125,1.155 L125.125,26.075 L127.295,26.075 Z M135.52,26.075 L135.52,15.925 C135.52,14.105 136.056667,12.6583333 137.13,11.585 C138.203333,10.5116667 139.615,9.975 141.365,9.975 C142.881667,9.975 143.995833,10.3833333 144.7075,11.2 C145.419167,12.0166667 145.775,13.3 145.775,15.05 L145.775,15.05 L145.775,26.075 L147.91,26.075 L147.91,14.91 C147.91,10.3833333 145.798333,8.12 141.575,8.12 C140.175,8.12 138.938333,8.42916667 137.865,9.0475 C136.791667,9.66583333 135.986667,10.57 135.45,11.76 L135.45,11.76 L135.17,8.54 L133.14,8.54 C133.326667,9.96333333 133.42,11.585 133.42,13.405 L133.42,13.405 L133.42,26.075 L135.52,26.075 Z M161,26.075 L168.525,8.54 L166.355,8.54 L159.985,23.94 L153.65,8.54 L151.375,8.54 L158.795,26.075 L161,26.075 Z M179.515,26.32 C180.775,26.32 182,26.1041667 183.19,25.6725 C184.38,25.2408333 185.36,24.6633333 186.13,23.94 L186.13,23.94 L185.29,22.26 C183.54,23.7066667 181.615,24.43 179.515,24.43 C177.438333,24.43 175.8575,23.8058333 174.7725,22.5575 C173.6875,21.3091667 173.145,19.5066667 173.145,17.15 L173.145,17.15 L173.145,17.045 L186.445,17.045 L186.445,16.59 C186.445,13.93 185.7975,11.8533333 184.5025,10.36 C183.2075,8.86666667 181.405,8.12 179.095,8.12 C177.485,8.12 176.061667,8.49916667 174.825,9.2575 C173.588333,10.0158333 172.625833,11.0891667 171.9375,12.4775 C171.249167,13.8658333 170.905,15.4583333 170.905,17.255 C170.905,20.0783333 171.675,22.295 173.215,23.905 C174.755,25.515 176.855,26.32 179.515,26.32 Z M184.415,15.4 L173.285,15.4 C173.541667,13.65 174.171667,12.2908333 175.175,11.3225 C176.178333,10.3541667 177.485,9.87 179.095,9.87 C180.681667,9.87 181.93,10.3425 182.84,11.2875 C183.75,12.2325 184.275,13.6033333 184.415,15.4 L184.415,15.4 Z M196.735,26.32 C198.788333,26.32 200.421667,25.8708333 201.635,24.9725 C202.848333,24.0741667 203.455,22.89 203.455,21.42 C203.455,19.0166667 201.88,17.465 198.73,16.765 L198.73,16.765 L195.72,16.03 C194.716667,15.7966667 193.975833,15.435 193.4975,14.945 C193.019167,14.455 192.78,13.8133333 192.78,13.02 C192.78,12.0633333 193.153333,11.3166667 193.9,10.78 C194.646667,10.2433333 195.696667,9.975 197.05,9.975 C198.963333,9.975 200.725,10.675 202.335,12.075 L202.335,12.075 L203.14,10.43 C202.44,9.68333333 201.559167,9.11166667 200.4975,8.715 C199.435833,8.31833333 198.286667,8.12 197.05,8.12 C195.09,8.12 193.520833,8.58083333 192.3425,9.5025 C191.164167,10.4241667 190.575,11.655 190.575,13.195 C190.575,14.315 190.9775,15.295 191.7825,16.135 C192.5875,16.975 193.69,17.5583333 195.09,17.885 L195.09,17.885 L198.065,18.55 C199.208333,18.83 200.030833,19.1975 200.5325,19.6525 C201.034167,20.1075 201.285,20.7316667 201.285,21.525 C201.285,22.4816667 200.905833,23.2108333 200.1475,23.7125 C199.389167,24.2141667 198.286667,24.465 196.84,24.465 C195.603333,24.465 194.5125,24.3016667 193.5675,23.975 C192.6225,23.6483333 191.683333,23.1 190.75,22.33 L190.75,22.33 L189.98,23.975 C191.636667,25.5383333 193.888333,26.32 196.735,26.32 Z M214.095,26.285 C214.865,26.285 215.623333,26.1916667 216.37,26.005 L216.37,26.005 L216.37,24.08 C215.763333,24.29 215.133333,24.395 214.48,24.395 C213.43,24.395 212.636667,24.1266667 212.1,23.59 C211.563333,23.0533333 211.295,22.085 211.295,20.685 L211.295,20.685 L211.295,10.255 L216.475,10.255 L216.475,8.54 L211.295,8.54 L211.295,3.08 L209.16,3.885 L209.16,8.54 L205.695,8.54 L205.695,10.255 L209.16,10.255 L209.16,21.105 C209.16,22.8316667 209.5975,24.1266667 210.4725,24.99 C211.3475,25.8533333 212.555,26.285 214.095,26.285 Z M222.635,4.025 L222.635,1.295 L219.8,1.295 L219.8,4.025 L222.635,4.025 Z M222.215,26.075 L222.215,8.54 L220.115,8.54 L220.115,26.075 L222.215,26.075 Z M235.655,33.88 C238.105,33.88 239.96,33.2266667 241.22,31.92 C242.48,30.6133333 243.11,28.6883333 243.11,26.145 L243.11,26.145 L243.11,8.54 L240.975,8.54 L240.975,11.69 C240.438333,10.5233333 239.650833,9.63666667 238.6125,9.03 C237.574167,8.42333333 236.32,8.12 234.85,8.12 C233.31,8.12 231.945,8.48166667 230.755,9.205 C229.565,9.92833333 228.6375,10.9491667 227.9725,12.2675 C227.3075,13.5858333 226.975,15.1083333 226.975,16.835 C226.975,18.5383333 227.3075,20.0491667 227.9725,21.3675 C228.6375,22.6858333 229.565,23.7125 230.755,24.4475 C231.945,25.1825 233.31,25.55 234.85,25.55 C236.32,25.55 237.58,25.2291667 238.63,24.5875 C239.68,23.9458333 240.473333,23.03 241.01,21.84 L241.01,21.84 L241.01,26.355 C241.01,28.1983333 240.560833,29.5983333 239.6625,30.555 C238.764167,31.5116667 237.44,31.99 235.69,31.99 C234.453333,31.99 233.356667,31.85 232.4,31.57 C231.443333,31.29 230.393333,30.8116667 229.25,30.135 L229.25,30.135 L228.83,31.99 C230.766667,33.25 233.041667,33.88 235.655,33.88 Z M235.13,23.625 C233.286667,23.625 231.84,23.0241667 230.79,21.8225 C229.74,20.6208333 229.215,18.9583333 229.215,16.835 C229.215,14.7116667 229.74,13.0375 230.79,11.8125 C231.84,10.5875 233.286667,9.975 235.13,9.975 C236.95,9.975 238.379167,10.5875 239.4175,11.8125 C240.455833,13.0375 240.975,14.7116667 240.975,16.835 C240.975,18.935 240.455833,20.5916667 239.4175,21.805 C238.379167,23.0183333 236.95,23.625 235.13,23.625 Z M255.605,26.32 C257.051667,26.32 258.294167,26.0108333 259.3325,25.3925 C260.370833,24.7741667 261.146667,23.8816667 261.66,22.715 L261.66,22.715 L261.66,26.075 L263.795,26.075 L263.795,8.54 L261.66,8.54 L261.66,11.69 C261.123333,10.5233333 260.335833,9.63666667 259.2975,9.03 C258.259167,8.42333333 257.028333,8.12 255.605,8.12 C254.065,8.12 252.705833,8.49916667 251.5275,9.2575 C250.349167,10.0158333 249.433333,11.0891667 248.78,12.4775 C248.126667,13.8658333 247.8,15.47 247.8,17.29 C247.8,19.11 248.120833,20.7025 248.7625,22.0675 C249.404167,23.4325 250.314167,24.4825 251.4925,25.2175 C252.670833,25.9525 254.041667,26.32 255.605,26.32 Z M255.92,24.43 C254.053333,24.43 252.606667,23.8058333 251.58,22.5575 C250.553333,21.3091667 250.04,19.5533333 250.04,17.29 C250.04,15.0033333 250.553333,13.2125 251.58,11.9175 C252.606667,10.6225 254.041667,9.975 255.885,9.975 C257.728333,9.975 259.151667,10.605 260.155,11.865 C261.158333,13.125 261.66,14.91 261.66,17.22 C261.66,19.5066667 261.158333,21.28 260.155,22.54 C259.151667,23.8 257.74,24.43 255.92,24.43 Z M275.38,26.285 C276.15,26.285 276.908333,26.1916667 277.655,26.005 L277.655,26.005 L277.655,24.08 C277.048333,24.29 276.418333,24.395 275.765,24.395 C274.715,24.395 273.921667,24.1266667 273.385,23.59 C272.848333,23.0533333 272.58,22.085 272.58,20.685 L272.58,20.685 L272.58,10.255 L277.76,10.255 L277.76,8.54 L272.58,8.54 L272.58,3.08 L270.445,3.885 L270.445,8.54 L266.98,8.54 L266.98,10.255 L270.445,10.255 L270.445,21.105 C270.445,22.8316667 270.8825,24.1266667 271.7575,24.99 C272.6325,25.8533333 273.84,26.285 275.38,26.285 Z M288.365,26.32 C289.951667,26.32 291.351667,25.9466667 292.565,25.2 C293.778333,24.4533333 294.7175,23.3916667 295.3825,22.015 C296.0475,20.6383333 296.38,19.04 296.38,17.22 C296.38,15.4 296.0475,13.8016667 295.3825,12.425 C294.7175,11.0483333 293.778333,9.98666667 292.565,9.24 C291.351667,8.49333333 289.951667,8.12 288.365,8.12 C286.755,8.12 285.3375,8.49333333 284.1125,9.24 C282.8875,9.98666667 281.9425,11.0483333 281.2775,12.425 C280.6125,13.8016667 280.28,15.4 280.28,17.22 C280.28,19.04 280.6125,20.6383333 281.2775,22.015 C281.9425,23.3916667 282.8875,24.4533333 284.1125,25.2 C285.3375,25.9466667 286.755,26.32 288.365,26.32 Z M288.33,24.43 C286.463333,24.43 285.028333,23.8116667 284.025,22.575 C283.021667,21.3383333 282.52,19.5533333 282.52,17.22 C282.52,14.9333333 283.033333,13.1541667 284.06,11.8825 C285.086667,10.6108333 286.521667,9.975 288.365,9.975 C290.185,9.975 291.608333,10.6108333 292.635,11.8825 C293.661667,13.1541667 294.175,14.9333333 294.175,17.22 C294.175,19.53 293.6675,21.3091667 292.6525,22.5575 C291.6375,23.8058333 290.196667,24.43 288.33,24.43 Z M303.17,26.075 L303.17,15.785 C303.17,14.2216667 303.6075,12.8741667 304.4825,11.7425 C305.3575,10.6108333 306.681667,10.045 308.455,10.045 C309.085,10.045 309.621667,10.0916667 310.065,10.185 L310.065,10.185 L310.17,8.26 C309.726667,8.16666667 309.213333,8.12 308.63,8.12 C307.37,8.12 306.244167,8.435 305.2525,9.065 C304.260833,9.695 303.543333,10.605 303.1,11.795 L303.1,11.795 L302.82,8.54 L300.79,8.54 C300.976667,9.96333333 301.07,11.585 301.07,13.405 L301.07,13.405 L301.07,26.075 L303.17,26.075 Z M318.99,26.32 C321.043333,26.32 322.676667,25.8708333 323.89,24.9725 C325.103333,24.0741667 325.71,22.89 325.71,21.42 C325.71,19.0166667 324.135,17.465 320.985,16.765 L320.985,16.765 L317.975,16.03 C316.971667,15.7966667 316.230833,15.435 315.7525,14.945 C315.274167,14.455 315.035,13.8133333 315.035,13.02 C315.035,12.0633333 315.408333,11.3166667 316.155,10.78 C316.901667,10.2433333 317.951667,9.975 319.305,9.975 C321.218333,9.975 322.98,10.675 324.59,12.075 L324.59,12.075 L325.395,10.43 C324.695,9.68333333 323.814167,9.11166667 322.7525,8.715 C321.690833,8.31833333 320.541667,8.12 319.305,8.12 C317.345,8.12 315.775833,8.58083333 314.5975,9.5025 C313.419167,10.4241667 312.83,11.655 312.83,13.195 C312.83,14.315 313.2325,15.295 314.0375,16.135 C314.8425,16.975 315.945,17.5583333 317.345,17.885 L317.345,17.885 L320.32,18.55 C321.463333,18.83 322.285833,19.1975 322.7875,19.6525 C323.289167,20.1075 323.54,20.7316667 323.54,21.525 C323.54,22.4816667 323.160833,23.2108333 322.4025,23.7125 C321.644167,24.2141667 320.541667,24.465 319.095,24.465 C317.858333,24.465 316.7675,24.3016667 315.8225,23.975 C314.8775,23.6483333 313.938333,23.1 313.005,22.33 L313.005,22.33 L312.235,23.975 C313.891667,25.5383333 316.143333,26.32 318.99,26.32 Z" id="Investigators"></path>
                </g>
                <g id="emblem">
                    <path d="M24,0 C37.254834,0 48,10.745166 48,24 C48,37.254834 37.254834,48 24,48 C10.745166,48 0,37.254834 0,24 C0,10.745166 10.745166,0 24,0 Z M24.0242057,7 C21.3353505,7 18.9435199,7.48796296 16.8487141,8.46388889 C14.7539082,9.43981481 12.97176,10.7148148 11.5022693,12.2888889 C10.0327786,13.862963 8.91502774,15.6416667 8.14901664,17.625 C7.38300555,19.6083333 7,21.6231481 7,23.6694444 C7,25.8101852 7.40645487,27.9194444 8.2193646,29.9972222 C9.03227433,32.075 10.181291,33.9324074 11.6664145,35.5694444 C13.1515381,37.2064815 14.9180535,38.5208333 16.9659607,39.5125 C19.0138679,40.5041667 21.272819,41 23.7428139,41 C25.1497731,41 26.5958144,40.8268519 28.080938,40.4805556 C29.5660615,40.1342593 30.9573878,39.6305556 32.2549168,38.9694444 C33.5524458,38.3083333 34.7092789,37.4898148 35.725416,36.5138889 C36.6399395,35.6355556 37.3455295,34.6552222 37.8421861,33.5728889 L38,33.2083333 L30.5431165,28.7222222 C30.2617247,29.4777778 29.8787191,30.1152778 29.3940998,30.6347222 C28.9094806,31.1541667 28.3623298,31.5791667 27.7526475,31.9097222 C27.1429652,32.2402778 26.5098336,32.4763889 25.8532526,32.6180556 C25.1966717,32.7597222 24.5557237,32.8305556 23.9304085,32.8305556 C22.7423096,32.8305556 21.6714574,32.5865741 20.7178517,32.0986111 C19.7642461,31.6106481 18.9591528,30.9574074 18.3025719,30.1388889 C17.6459909,29.3203704 17.1457388,28.3759259 16.8018154,27.3055556 C16.4578921,26.2351852 16.2859304,25.1175926 16.2859304,23.9527778 C16.2859304,22.9138889 16.4344428,21.8671296 16.7314675,20.8125 C17.0284922,19.7578704 17.4818457,18.8134259 18.091528,17.9791667 C18.7012103,17.1449074 19.4828543,16.4680556 20.4364599,15.9486111 C21.3900656,15.4291667 22.5234493,15.1694444 23.8366112,15.1694444 C24.4619264,15.1694444 25.1106909,15.2324074 25.7829047,15.3583333 C26.4551185,15.4842593 27.103883,15.7046296 27.7291982,16.0194444 C28.3545134,16.3342593 28.9251135,16.7592593 29.4409985,17.2944444 C29.8923979,17.7627315 30.2659993,18.3394821 30.5618027,19.0246962 L30.6838124,19.325 L37.6717095,14.3194444 C36.5148764,12.1157407 34.7561775,10.3449074 32.3956127,9.00694444 C30.0350479,7.66898148 27.2445789,7 24.0242057,7 Z M40.2940726,22.1353957 C38.4315135,21.0162573 36.0143702,21.6189188 34.8952318,23.4814779 C33.7760934,25.344037 34.3787549,27.7611803 36.241314,28.8803187 C38.103873,29.9994571 40.5210164,29.3967956 41.6401548,27.5342365 C42.7592932,25.6716775 42.1566317,23.2545341 40.2940726,22.1353957 Z" id="Combined-Shape"></path>
                </g>
            </g>
        </g>
    </g>
</svg>